M48
;DRILL file {KiCad (5.0.2)-1} date 11/24/2019 12:24:21 AM
;FORMAT={3:3/ absolute / metric / suppress leading zeros}
FMAT,2
METRIC,TZ
T1C0.400
T2C0.900
T3C1.000
T4C1.016
T5C1.100
T6C1.500
T7C1.520
T8C2.000
T9C3.000
T10C4.300
%
G90
G05
T1
X96427Y-72646
X96428Y-71380
X96721Y-67303
X97243Y-70427
X98225Y-71214
X98234Y-75624
X101255Y-69843
X101266Y-74923
X101272Y-73466
X103074Y-72383
X105383Y-76015
X108448Y-69945
X108514Y-67405
X108517Y-68676
X116783Y-72386
X117192Y-79761
X117422Y-71200
X118676Y-71208
X122407Y-76873
X123893Y-71424
X125171Y-70796
X125557Y-76899
X128183Y-68503
X129071Y-66916
X129597Y-69664
X130193Y-67579
X130494Y-74959
X132010Y-75876
X145946Y-71538
X146274Y-73891
X147336Y-71928
X204660Y-66773
X205260Y-76921
X207711Y-66980
X208195Y-73657
X208729Y-72309
X208868Y-71033
X208904Y-68727
X209594Y-75870
X212167Y-64863
X213105Y-74600
X213111Y-70577
X221836Y-70673
X222151Y-74244
X222320Y-60080
X225173Y-68527
X226307Y-75532
X226315Y-67087
X227721Y-65673
X231725Y-68816
X234756Y-73076
X234756Y-68035
X234769Y-70913
X238036Y-74346
X238036Y-75887
X241482Y-76762
X290614Y-69202
X292233Y-69921
X293336Y-63210
X294663Y-61822
X295323Y-73042
X296232Y-65478
X296284Y-60334
X296342Y-72152
X296388Y-69373
X297367Y-75762
X297906Y-71243
X298167Y-65177
X298684Y-75260
X298689Y-70258
X299515Y-66692
X299943Y-59834
X301190Y-67080
X301426Y-64821
X302905Y-64282
X303306Y-60432
X305290Y-61169
X308683Y-71115
X313680Y-75321
X316749Y-72173
X316933Y-66916
X316990Y-69158
X317971Y-67649
X318698Y-70907
X318699Y-72164
X318846Y-75557
X319070Y-74307
X322104Y-69407
X323003Y-71234
X326147Y-65034
X326435Y-63620
X327423Y-69879
X327507Y-68603
X327858Y-67353
X334859Y-74447
X335197Y-72523
X335912Y-70637
X337210Y-76792
X339377Y-66827
X340312Y-70769
X340652Y-66794
X341195Y-74480
X341327Y-70016
X341760Y-73177
X344793Y-69367
X347225Y-74447
X350186Y-76437
T2
X272339Y-129642
X274879Y-129642
T3
X317398Y-48819
X317398Y-51359
X319938Y-48819
X319938Y-51359
X322478Y-48819
X322478Y-51359
X325018Y-48819
X325018Y-51359
X327558Y-48819
X327558Y-51359
X330098Y-48819
X330098Y-51359
X332638Y-48819
X332638Y-51359
X335178Y-48819
X335178Y-51359
X337718Y-48819
X337718Y-51359
X340258Y-48819
X340258Y-51359
T4
X243332Y-49733
X243332Y-52273
X245872Y-49733
X245872Y-52273
X248412Y-49733
X248412Y-52273
T5
X349656Y-48870
X352196Y-48870
X354736Y-48870
T7
X259232Y-51156
X264312Y-51156
X269392Y-51156
X274472Y-51156
X279552Y-51156
X284632Y-51156
T8
X285953Y-97675
X286080Y-115074
X289890Y-92976
X289890Y-119773
X295224Y-90055
X295224Y-122821
X312369Y-92976
X312369Y-119773
X316179Y-115201
X316306Y-97675
X318338Y-109359
X68402Y-97675
X68529Y-115074
X72339Y-92976
X72339Y-119773
X77673Y-90055
X77673Y-122821
X94818Y-92976
X94818Y-119773
X98628Y-115201
X98755Y-97675
X100787Y-109359
X231279Y-97675
X231406Y-115074
X235216Y-92976
X235216Y-119773
X240550Y-90055
X240550Y-122821
X257695Y-92976
X257695Y-119773
X261505Y-115201
X261632Y-97675
X263664Y-109359
X176797Y-97675
X176924Y-115074
X180734Y-92976
X180734Y-119773
X186068Y-90055
X186068Y-122821
X203213Y-92976
X203213Y-119773
X207023Y-115201
X207150Y-97675
X209182Y-109359
X122631Y-97612
X122758Y-115011
X126568Y-92913
X126568Y-119710
X131902Y-89992
X131902Y-122758
X149047Y-92913
X149047Y-119710
X152857Y-115138
X152984Y-97612
X155016Y-109296
X340309Y-97675
X340436Y-115074
X344246Y-92976
X344246Y-119773
X349580Y-90055
X349580Y-122821
X366725Y-92976
X366725Y-119773
X370535Y-115201
X370662Y-97675
X372694Y-109359
T9
X152702Y-49207
X152702Y-74807
X190302Y-49207
X190302Y-74807
T10
X381330Y-49936
X294196Y-48882
X382080Y-128206
X327000Y-129858
X218504Y-129858
X110846Y-129489
X57214Y-50495
X57214Y-127889
X140513Y-48565
T3
X364108Y-54014G85X364108Y-56014
G05
X369808Y-52014G85X367808Y-52014
G05
X369808Y-58014G85X367808Y-58014
G05
T6
X382742Y-66091G85X378242Y-66091
G05
X382742Y-73076G85X378242Y-73076
G05
T0
M30
